<?xml version="1.0" encoding="UTF-8"?>
<svg version="1.1" xmlns="http://www.w3.org/2000/svg" width="980" height="980">
<path d="M0 0 C323.4 0 646.8 0 980 0 C980 323.4 980 646.8 980 980 C656.6 980 333.2 980 0 980 C0 656.6 0 333.2 0 0 Z " fill="#FEFEFE" transform="translate(0,0)"/>
<path d="M0 0 C4.68018548 3.98034466 6.25014929 7.48554548 7.9375 13.1875 C8.44746736 14.81133909 8.95789658 16.43503319 9.46875 18.05859375 C9.72269531 18.88343262 9.97664062 19.70827148 10.23828125 20.55810547 C11.40865008 24.31003784 12.67746631 28.02745756 13.9375 31.75 C16.0654568 38.10497476 18.1107275 44.48320157 20.125 50.875 C23.82269868 62.60097757 27.73172008 74.25560882 31.64892578 85.90966797 C34.22932202 93.5997979 36.73878992 101.30424966 39.13565063 109.05357361 C41.24684291 115.85184363 43.51700408 122.59444673 45.79263306 129.33908081 C49.35304088 139.90110689 52.8359957 150.46160248 55.875 161.1875 C57.47408921 166.60663564 59.28532078 171.95010236 61.12231445 177.29272461 C63 182.79709638 63 182.79709638 63 185 C63.66 185 64.32 185 65 185 C65.23074219 183.99324219 65.46148438 182.98648438 65.69921875 181.94921875 C69.35037076 166.14913445 73.49365693 150.50857717 78.03271484 134.94042969 C78.2745752 134.10672852 78.51643555 133.27302734 78.765625 132.4140625 C78.97993164 131.6813916 79.19423828 130.9487207 79.41503906 130.19384766 C81.02071452 124.17189455 81.21675868 118.51616223 81.25 112.3125 C81.270625 111.36955078 81.29125 110.42660156 81.3125 109.45507812 C81.37640232 97.83284455 77.45101797 89.36341592 71.8125 79.375 C70.62822775 77.2354701 69.44593243 75.09484471 68.265625 72.953125 C67.69779297 71.92509766 67.12996094 70.89707031 66.54492188 69.83789062 C64.62419129 66.30967123 62.8201452 62.73649937 61.0625 59.125 C56.94154103 50.68630428 52.42860435 42.45890432 47.92211914 34.22119141 C37.88884274 15.77810082 37.88884274 15.77810082 39 8 C41.44031392 2.31977995 44.54790641 -1.00359516 50 -4 C53.18589241 -4.58191495 56.3179348 -4.57758321 59.55029297 -4.56518555 C60.96610657 -4.58292778 60.96610657 -4.58292778 62.41052246 -4.60102844 C65.52131585 -4.63384478 68.63123257 -4.6368725 71.7421875 -4.63671875 C73.91163488 -4.6470372 76.08107884 -4.65810074 78.2505188 -4.6698761 C82.79487084 -4.68929694 87.33891518 -4.69273359 91.88330078 -4.6862793 C97.69650297 -4.68028358 103.50810819 -4.72451708 109.32098198 -4.78216839 C113.80099677 -4.81920272 118.28062783 -4.82406754 122.76077652 -4.81989479 C124.9033461 -4.82276177 127.04593181 -4.83679733 129.18835068 -4.86237144 C132.19029583 -4.89444091 135.1889623 -4.88175267 138.19091797 -4.8581543 C139.06910187 -4.87703705 139.94728577 -4.8959198 140.8520813 -4.91537476 C146.9217839 -4.80231167 150.00544681 -3.04026044 154.39953804 1.10829449 C158.17837556 5.57478475 158.72728315 9.72836057 158.63671875 15.46875 C157.45026684 22.04882684 153.66957181 27.33644549 150.20947266 32.96191406 C148.35031731 36.09478221 146.7708742 39.34652324 145.1875 42.625 C141.93601802 49.27158361 138.43957116 55.76647875 134.875 62.25 C131.20149959 68.93415628 127.57476862 75.61268073 124.23828125 82.47265625 C123.39020638 84.20358508 122.51082687 85.91942625 121.60546875 87.62109375 C121.15816406 88.46800781 120.71085938 89.31492187 120.25 90.1875 C119.86328125 90.90292969 119.4765625 91.61835937 119.078125 92.35546875 C113.61224479 105.7627184 114.68037544 121.01455173 119.4375 134.37109375 C121.53461939 140.32599397 123.00900765 146.44823111 124.5625 152.5625 C125.01254395 154.31735718 125.01254395 154.31735718 125.47167969 156.10766602 C126.31686652 159.40449904 127.15858661 162.70220236 128 166 C128.76337466 168.98116723 129.53358158 171.96036009 130.3125 174.9375 C130.59738281 176.03964844 130.88226562 177.14179687 131.17578125 178.27734375 C131.91365606 180.71477856 132.8335672 182.74970043 134 185 C141.25703408 163.86068991 141.25703408 163.86068991 147.8125 142.5 C149.35028486 137.08166779 151.08781045 131.79363885 153 126.5 C154.97075822 121.04270667 156.77617433 115.57776712 158.375 110 C160.50237923 102.58522285 162.78531949 95.22554068 165.125 87.875 C165.63039307 86.27398438 165.63039307 86.27398438 166.14599609 84.640625 C167.48204417 80.46258252 168.83298318 76.38956673 170.5625 72.35546875 C172.36943401 68.13765268 173.60936704 63.84230797 174.875 59.4375 C176.97202867 52.27777579 179.28159333 45.2799191 181.85546875 38.27734375 C183.02063544 34.94091081 183.99793762 31.59389694 184.9375 28.1875 C192.30878347 2.16775037 192.30878347 2.16775037 201 -3 C211.00561913 -8.00280956 227.71537347 -2.21469603 238 0 C239.81757812 0.37511719 239.81757812 0.37511719 241.671875 0.7578125 C253.73811029 3.36916193 265.36591918 7.26686978 276.875 11.6875 C277.65447998 11.98495117 278.43395996 12.28240234 279.23706055 12.58886719 C284.7533837 14.7533837 284.7533837 14.7533837 287 17 C289.06874034 17.6425235 289.06874034 17.6425235 291 18 C291 18.66 291 19.32 291 20 C292.31871094 20.40605469 292.31871094 20.40605469 293.6640625 20.8203125 C304.67726552 24.71491122 314.05696494 32.49354831 323.18115234 39.58789062 C324.72211218 40.78425461 326.27573547 41.96428005 327.83203125 43.140625 C339.93854513 52.58779712 351.10139342 63.90624566 360.625 75.9375 C361.08003906 76.51008545 361.53507812 77.0826709 362.00390625 77.67260742 C365 81.60498047 365 81.60498047 365 85 C365.99 85.33 366.98 85.66 368 86 C369.23925781 87.54370117 369.23925781 87.54370117 370.453125 89.54296875 C370.90405518 90.27990967 371.35498535 91.01685059 371.81958008 91.77612305 C372.52763794 92.96975464 372.52763794 92.96975464 373.25 94.1875 C373.73944092 95.00323486 374.22888184 95.81896973 374.7331543 96.65942383 C384.55542353 113.21113703 391.70841259 130.53834016 397 149 C397.54140625 150.87751953 397.54140625 150.87751953 398.09375 152.79296875 C403.28471874 172.08213669 404.44866499 191.38574943 404.40405273 211.27490234 C404.40977243 213.61669232 404.41674279 215.95847952 404.42485046 218.30026245 C404.44261185 224.58913067 404.44164696 230.87785811 404.43590808 237.16674376 C404.43239804 243.11081138 404.4404084 249.05485839 404.44726873 254.99892147 C404.46091916 267.48076872 404.45560673 279.96255286 404.44408352 292.4443986 C404.43413679 303.82627293 404.4471299 315.20798503 404.47101771 326.58983438 C404.4954763 338.3337138 404.5050014 350.07751787 404.49836498 361.82142222 C404.49500768 368.39224369 404.4973298 374.96293089 404.51461601 381.53373337 C404.53015531 387.70805763 404.52605224 393.88207268 404.50731087 400.05638504 C404.50364558 402.31048781 404.50667267 404.56461388 404.51719666 406.81869507 C404.61160763 428.72558908 401.90236004 445.14073319 386.37890625 461.71484375 C372.72692988 474.8288112 357.45517658 478.25136464 339.19843805 478.25816262 C337.34920024 478.2524578 335.499963 478.24656663 333.65072632 478.24050903 C331.67044063 478.24138181 329.69015517 478.24313412 327.70987093 478.24568737 C322.28248242 478.25015071 316.85517312 478.2421711 311.42779469 478.23213124 C305.56970174 478.22348447 299.71161316 478.22641777 293.85351562 478.22793579 C283.70868244 478.22898386 273.56387501 478.22271536 263.41904831 478.21146011 C248.75138335 478.19519758 234.0837265 478.18998965 219.41605337 478.18748413 C195.61801948 478.18328608 171.819999 478.16981911 148.02197266 478.15087891 C124.90608796 478.13250287 101.79020694 478.11833916 78.67431641 478.10986328 C77.60505121 478.1094687 77.60505121 478.1094687 76.5141847 478.10906615 C69.35535576 478.10642906 62.19652679 478.10387744 55.0376978 478.10138843 C40.45503279 478.09631635 25.87236803 478.09067384 11.28970337 478.08468628 C10.61925256 478.0844117 9.94880176 478.08413712 9.25803426 478.08385422 C-35.49464944 478.0654606 -80.24732555 478.03372943 -125 478 C-118.72045472 470.58980606 -118.72045472 470.58980606 -115.70606995 467.61273193 C-115.12736145 467.03842941 -114.54865295 466.46412689 -113.95240784 465.87242126 C-113.33977585 465.26966873 -112.72714386 464.6669162 -112.09594727 464.04589844 C-111.43331879 463.3895491 -110.77069031 462.73319977 -110.08798218 462.05696106 C-108.66004459 460.64278891 -107.23103707 459.22969643 -105.80105782 457.81758881 C-103.53100629 455.57439385 -101.26554142 453.32666283 -99.00144958 451.07745361 C-92.56761557 444.68614808 -86.13125038 438.29747329 -79.6784668 431.92529297 C-75.72056702 428.01617336 -71.7727209 424.09713678 -67.83106804 420.17163849 C-66.33615451 418.6865594 -64.83760895 417.20512635 -63.3352375 415.72759247 C-46.8051508 399.73978541 -46.8051508 399.73978541 -40.69921875 378.1953125 C-40.68077032 376.50530451 -40.67720642 374.81507733 -40.6875 373.125 C-40.68878906 372.2474707 -40.69007813 371.36994141 -40.69140625 370.46582031 C-40.78330489 364.2787443 -41.47223088 358.71757301 -44 353 C-43.154375 352.5875 -42.30875 352.175 -41.4375 351.75 C-28.36380444 345.09430044 -21.60740062 337.60404151 -16 324 C-15.20170205 320.66690023 -14.87062675 317.56733155 -14.85282898 314.14486694 C-14.84567368 313.19467682 -14.83851837 312.24448669 -14.83114624 311.26550293 C-14.82845734 310.23477661 -14.82576843 309.20405029 -14.82299805 308.14208984 C-14.81642685 307.04712189 -14.80985565 305.95215393 -14.80308533 304.82400513 C-14.78338761 301.20298184 -14.77169688 297.58199999 -14.76171875 293.9609375 C-14.75764322 292.72154041 -14.7535677 291.48214333 -14.74936867 290.20518875 C-14.73066913 284.31961003 -14.71610096 278.43404439 -14.7077567 272.5484432 C-14.69800006 265.78039473 -14.67171509 259.01267468 -14.63125581 252.2447418 C-14.59731158 246.36238987 -14.58559979 240.48014685 -14.58155251 234.59770584 C-14.57669472 232.1059611 -14.56510398 229.61421966 -14.54651451 227.12253952 C-14.52205299 223.62618953 -14.52310152 220.13068748 -14.5300293 216.63427734 C-14.51721924 215.61569641 -14.50440918 214.59711548 -14.49121094 213.54766846 C-14.58116827 201.01874539 -19.27813072 191.93149099 -27.87890625 183.0625 C-32.70612192 178.53759481 -37.97932211 175.67722767 -44 173 C-43.56287105 169.94009733 -43.06675335 167.1775843 -41.9765625 164.27734375 C-40.85761337 160.52215047 -40.69557567 157.06684808 -40.75 153.1875 C-40.75821777 152.47827393 -40.76643555 151.76904785 -40.77490234 151.03833008 C-41.13915343 133.93615405 -49.26412708 124.09846306 -60.93516541 112.447052 C-62.53839731 110.86272294 -64.14205028 109.27881989 -65.74609375 107.6953125 C-67.40321755 106.04244573 -69.05937555 104.38861015 -70.71461487 102.7338562 C-74.17266292 99.28194947 -77.63877102 95.83842999 -81.11157227 92.40136719 C-85.55300134 88.00529626 -89.97894123 83.59403085 -94.39959621 79.17708015 C-97.8140977 75.76701541 -101.2340087 72.36242136 -104.65583992 68.95971298 C-106.28948403 67.33491771 -107.92207998 65.70906783 -109.55358696 64.08212662 C-111.83593139 61.80886739 -114.12481625 59.54240914 -116.41577148 57.27783203 C-117.08248367 56.61178452 -117.74919586 55.945737 -118.43611145 55.25950623 C-122.38287483 51.37503501 -126.40992035 48.1022403 -131 45 C-129.62576392 41.7213657 -128.31847536 40.24156756 -125.3125 38.375 C-122.37022769 36.50778873 -119.44174466 34.63470809 -116.5625 32.671875 C-93.15548173 16.72818869 -27.69908849 -20.91563825 0 0 Z " fill="#000000" transform="translate(527,453)"/>
<path d="M0 0 C1.01521729 -0.0087616 2.03043457 -0.01752319 3.07641602 -0.02655029 C6.4297164 -0.04854247 9.78169614 -0.03399012 13.13500977 -0.01708984 C15.46761834 -0.02045826 17.8002252 -0.0253111 20.13282776 -0.03158569 C25.02117628 -0.03895704 29.90906789 -0.02824339 34.79736328 -0.00488281 C41.06004223 0.02358853 47.32164908 0.0072119 53.5842886 -0.02274513 C58.40135252 -0.04082403 63.21816284 -0.03505691 68.03523445 -0.02210617 C70.34408762 -0.01877302 72.65296389 -0.022856 74.96179008 -0.03450394 C78.19129156 -0.04721986 81.41906458 -0.02782233 84.6484375 0 C85.60083817 -0.01012115 86.55323883 -0.02024231 87.53450012 -0.03067017 C91.84255583 0.03800052 94.97693139 0.233352 98.48361206 2.88723755 C100.99708146 5.77107671 101.63550215 6.72054826 101.61425781 10.44970703 C101.62908455 11.83639587 101.62908455 11.83639587 101.64421082 13.25109863 C101.62570572 14.23767456 101.60720062 15.22425049 101.58813477 16.24072266 C101.5947261 17.26500366 101.60131744 18.28928467 101.60810852 19.34460449 C101.62558318 22.61272369 101.60359747 25.87894371 101.57641602 29.14697266 C101.56511177 32.41462086 101.56246699 35.68170216 101.57685852 38.94934082 C101.58423767 40.9805151 101.57605493 43.01182026 101.55046082 45.04284668 C101.55278672 50.06657775 101.56833782 53.58899292 104.88891602 57.64697266 C106.85540941 60.00701179 106.85540941 60.00701179 110.51391602 60.20947266 C117.85627113 59.95010041 122.64086827 52.94939431 127.43252563 47.98454285 C127.97500946 47.42068375 128.51749329 46.85682465 129.07641602 46.27587891 C129.62768158 45.70521194 130.17894714 45.13454498 130.74691772 44.54658508 C134.19805493 40.97434567 134.19805493 40.97434567 137.61645508 37.37084961 C139.29296288 35.59116843 140.99409213 33.83845192 142.70141602 32.08837891 C143.20374756 31.54162003 143.7060791 30.99486115 144.22363281 30.43153381 C147.02379021 27.6096607 149.11064299 26.29034094 153.03027344 26.15478516 C156.61358274 26.61185264 158.12844048 26.82884555 160.81469727 29.08056641 C161.47421387 29.6295459 162.13373047 30.17852539 162.81323242 30.74414062 C166.68223643 34.29095517 170.4055282 37.95858226 174.07641602 41.70947266 C174.85694336 42.49902344 175.6374707 43.28857422 176.44165039 44.10205078 C177.93997254 45.61816471 179.43602805 47.13652316 180.92944336 48.6574707 C182.52569503 50.27818524 184.1336251 51.88460796 185.75219727 53.48291016 C187.57569197 55.32974025 189.248982 57.20148526 190.88891602 59.20947266 C193.31879521 62.09301216 195.93395067 64.29815405 198.88891602 66.64697266 C200.57623879 68.62957691 202.24257659 70.63020686 203.88891602 72.64697266 C206.44504237 75.33418241 209.00889711 77.7444573 211.88891602 80.08447266 C214.43609326 82.26018655 216.39789073 84.4317337 218.47094727 87.04150391 C220.16042425 88.9543828 222.00935332 90.55459114 223.95141602 92.20947266 C231.46270497 98.7126302 231.46270497 98.7126302 232.70141602 104.33447266 C232.47511751 108.37270626 230.79855892 110.2588916 228.08813477 113.16650391 C227.27304443 114.04153564 226.4579541 114.91656738 225.61816406 115.81811523 C220.7794181 120.83346093 215.84929208 125.75225553 210.88891602 130.64697266 C208.82353371 132.6857539 206.76152124 134.72786098 204.70141602 136.77197266 C203.80036133 137.66142578 202.89930664 138.55087891 201.97094727 139.46728516 C198.85411487 142.73031044 198.67358787 145.01558228 198.26782227 149.47900391 C199.0793073 152.31154601 200.64816711 153.75771523 202.91511536 155.57228088 C206.86237317 157.7214774 211.19249718 157.28706352 215.58032227 157.21337891 C216.60318832 157.21901352 217.62605438 157.22464813 218.67991638 157.23045349 C221.93755253 157.24687646 225.19382739 157.23137767 228.45141602 157.20947266 C231.71244631 157.1928728 234.97258324 157.18378503 238.23362732 157.19920349 C240.25923443 157.2084759 242.28503056 157.19934461 244.31044006 157.16957092 C248.69515079 157.18661116 251.18308488 157.21352658 254.98632812 159.54907227 C257.61777294 162.45065129 258.01460114 163.98807542 258.03608704 167.80207825 C258.04681999 169.10797157 258.04681999 169.10797157 258.05776978 170.44024658 C258.06045868 171.39767761 258.06314758 172.35510864 258.06591797 173.34155273 C258.07248917 174.34818466 258.07906036 175.35481659 258.08583069 176.39195251 C258.10559152 179.73347034 258.11723206 183.07494318 258.12719727 186.41650391 C258.13127279 187.55581549 258.13534832 188.69512707 258.13954735 189.86896324 C258.16041926 195.89823603 258.17471654 201.92748598 258.18408203 207.95678711 C258.19515309 214.19141603 258.22955816 220.42568868 258.26925373 226.66019154 C258.29536988 231.44797947 258.3037694 236.23568186 258.30736351 241.02353477 C258.31224184 243.32207332 258.32389104 245.62060773 258.3424015 247.91907692 C258.36668757 251.13441006 258.36584697 254.34881266 258.35888672 257.56420898 C258.37810181 258.99124649 258.37810181 258.99124649 258.39770508 260.44711304 C258.36400463 264.71343371 258.27814674 267.01997765 255.98454285 270.71464539 C252.99065986 273.47523313 251.39487386 273.77188625 247.42675781 273.78881836 C246.50207199 273.79585281 245.57738617 273.80288727 244.62467957 273.81013489 C243.12158989 273.8163813 243.12158989 273.8163813 241.58813477 273.82275391 C239.4754946 273.84595314 237.36286436 273.87007052 235.25024414 273.89501953 C231.91236752 273.93013956 228.57485532 273.95947893 225.23681641 273.97290039 C222.02013786 273.9883732 218.80453048 274.02858184 215.58813477 274.07275391 C214.59214767 274.07084549 213.59616058 274.06893707 212.56999207 274.06697083 C208.16622123 274.14471305 205.59710355 274.21130624 201.78271484 276.55786133 C199.53783217 279.03426472 198.95418997 280.07256181 198.57641602 283.39697266 C199.22870827 290.18081208 204.71504998 294.73967929 209.36938477 299.28759766 C209.98284256 299.89585388 210.59630035 300.50411011 211.22834778 301.13079834 C213.1729663 303.05771951 215.12419003 304.97776173 217.07641602 306.89697266 C219.03843105 308.83136045 220.99895432 310.7672033 222.95661926 312.70599365 C224.17139585 313.90851819 225.38883573 315.10835943 226.60917664 316.30523682 C231.70613697 321.34140801 231.70613697 321.34140801 232.32641602 325.77197266 C231.5851752 332.33724845 226.82980794 337.41192243 221.88891602 341.64697266 C221.22891602 341.64697266 220.56891602 341.64697266 219.88891602 341.64697266 C219.54860352 342.48228516 219.54860352 342.48228516 219.20141602 343.33447266 C216.9692888 347.26726823 213.72003838 349.98980614 210.20141602 352.77197266 C207.69737933 354.61258339 207.69737933 354.61258339 205.88891602 357.64697266 C205.22891602 357.64697266 204.56891602 357.64697266 203.88891602 357.64697266 C203.51766602 358.51322266 203.51766602 358.51322266 203.13891602 359.39697266 C201.70591613 361.97637245 200.10466925 363.70818858 197.88891602 365.64697266 C197.22891602 365.64697266 196.56891602 365.64697266 195.88891602 365.64697266 C195.51766602 366.51322266 195.51766602 366.51322266 195.13891602 367.39697266 C193.70591613 369.97637245 192.10466925 371.70818858 189.88891602 373.64697266 C189.22891602 373.64697266 188.56891602 373.64697266 187.88891602 373.64697266 C187.54860352 374.48228516 187.54860352 374.48228516 187.20141602 375.33447266 C184.9692888 379.26726823 181.72003838 381.98980614 178.20141602 384.77197266 C175.69737933 386.61258339 175.69737933 386.61258339 173.88891602 389.64697266 C173.22891602 389.64697266 172.56891602 389.64697266 171.88891602 389.64697266 C171.54860352 390.51322266 171.54860352 390.51322266 171.20141602 391.39697266 C169.55108124 394.22611799 167.45633025 395.62971862 164.88891602 397.64697266 C164.20829102 398.51322266 163.52766602 399.37947266 162.82641602 400.27197266 C159.94777206 403.80063299 158.08985401 404.439118 153.63891602 405.20947266 C144.15003955 403.78614119 136.18035082 392.02201417 129.57641602 385.33447266 C127.43739292 383.16881088 125.29503405 381.00652835 123.15063477 378.84619141 C122.66624435 378.35350266 122.18185394 377.8608139 121.68278503 377.35319519 C119.50325095 375.1578189 117.47690864 373.37230107 114.88891602 371.64697266 C112.13503975 371.62219906 112.13503975 371.62219906 109.20141602 372.02197266 C108.20754883 372.13283203 107.21368164 372.24369141 106.18969727 372.35791016 C105.05081055 372.50099609 105.05081055 372.50099609 103.88891602 372.64697266 C101.26466753 377.60149108 101.59243101 382.56351979 101.58032227 388.02197266 C101.55517052 390.07926726 101.52977238 392.13655886 101.50415039 394.19384766 C101.47537738 397.42626217 101.45134849 400.65862479 101.43261719 403.89111328 C101.41096647 407.01833308 101.37153748 410.14495849 101.33032227 413.27197266 C101.33020645 414.2366748 101.33009064 415.20137695 101.32997131 416.1953125 C101.25732617 421.12103177 101.19639657 424.70854604 97.88891602 428.64697266 C94.79211117 430.71150922 94.1208623 430.89959987 90.61355591 430.92112732 C89.74158569 430.93110245 88.86961548 430.94107758 87.97122192 430.95135498 C87.01738617 430.95201965 86.06355042 430.95268433 85.08081055 430.95336914 C84.07403259 430.96169266 83.06725464 430.97001617 82.02996826 430.97859192 C78.69384929 431.00273474 75.35792565 431.01146919 72.02172852 431.01806641 C69.70628804 431.02702923 67.39084818 431.03615101 65.07540894 431.04542542 C60.21814566 431.06192945 55.36095143 431.06961816 50.50366211 431.07250977 C44.27679271 431.07789598 38.05057128 431.11558061 31.82388496 431.16125393 C27.04037094 431.19098197 22.25701376 431.1982324 17.47341537 431.19923592 C15.17766221 431.20344639 12.88190892 431.21591361 10.58624649 431.23675346 C7.3756151 431.26357947 4.16649641 431.25886788 0.95581055 431.24633789 C-0.46887039 431.26858932 -0.46887039 431.26858932 -1.92233276 431.29129028 C-6.5149484 431.24019622 -8.46346527 431.1564337 -12.17776489 428.23451233 C-14.63629175 424.94403855 -15.23531245 423.38892861 -15.26879883 419.3684082 C-15.27906097 418.48376389 -15.28932312 417.59911957 -15.29989624 416.68766785 C-15.30719757 415.72935562 -15.3144989 414.7710434 -15.32202148 413.78369141 C-15.35009274 411.76219897 -15.37875722 409.7407147 -15.40795898 407.71923828 C-15.4492122 404.52628835 -15.48609209 401.33349045 -15.51245117 398.14038086 C-15.54007175 395.0628289 -15.5859476 391.98597446 -15.63452148 388.90869141 C-15.63940079 387.48033211 -15.63940079 387.48033211 -15.64437866 386.02311707 C-15.73514696 381.1243052 -15.84329254 377.58242581 -19.11108398 373.64697266 C-19.77108398 373.31697266 -20.43108398 372.98697266 -21.11108398 372.64697266 C-21.11108398 371.98697266 -21.11108398 371.32697266 -21.11108398 370.64697266 C-28.98940529 371.47426064 -33.16957596 373.56552574 -38.50952148 379.33447266 C-39.15176666 379.99278076 -39.79401184 380.65108887 -40.45571899 381.3293457 C-42.48580198 383.4169892 -44.48651524 385.53012291 -46.48608398 387.64697266 C-48.51214593 389.75823607 -50.54391107 391.86370275 -52.58071899 393.96459961 C-53.84140567 395.26847073 -55.09498726 396.57925934 -56.34042358 397.89770508 C-56.9084671 398.49172119 -57.47651062 399.0857373 -58.06176758 399.69775391 C-58.55566986 400.22022705 -59.04957214 400.7427002 -59.55844116 401.28100586 C-62.3220186 403.71231522 -64.74505041 404.58362069 -68.36108398 405.20947266 C-77.82515608 403.78986184 -85.90723155 391.9794858 -92.52905273 385.32666016 C-93.71611354 384.13772945 -94.9033989 382.9490229 -96.09089661 381.76052856 C-99.19659372 378.65104023 -102.29927766 375.53856263 -105.40130615 372.42541504 C-108.55470007 369.26177526 -111.710936 366.10097368 -114.86694336 362.93994141 C-120.41808258 357.37927055 -125.96674849 351.8161424 -131.51359558 346.25119019 C-133.28550455 344.47469086 -135.06047 342.70123614 -136.83808899 340.93045044 C-138.76504761 338.99460491 -140.58839488 337.0353849 -142.36108398 334.95947266 C-143.11131836 334.08742188 -143.11131836 334.08742188 -143.87670898 333.19775391 C-145.71650666 330.88636253 -146.13422244 329.50235729 -146.61108398 326.52197266 C-145.32023481 316.51789159 -132.20123907 307.69124237 -125.13134766 300.76318359 C-123.51993705 299.18196168 -121.91479754 297.59458234 -120.31030273 296.00634766 C-119.81761398 295.52711853 -119.32492523 295.0478894 -118.81730652 294.55413818 C-115.30858239 291.07131254 -113.23507014 288.6307511 -112.92358398 283.64697266 C-113.05231115 280.02448527 -113.05231115 280.02448527 -114.11108398 276.64697266 C-118.95001889 273.84844696 -124.29249756 274.36806558 -129.70483398 274.37353516 C-131.80770395 274.35325243 -133.9105685 274.33240177 -136.01342773 274.31103516 C-139.31832466 274.28840898 -142.6230076 274.27195159 -145.92797852 274.26611328 C-149.12482033 274.25659746 -152.32070619 274.22283906 -155.51733398 274.18603516 C-156.99719788 274.19360336 -156.99719788 274.19360336 -158.50695801 274.20132446 C-162.88987672 274.13844259 -165.41380322 274.07634734 -169.21069336 271.73828125 C-171.85157096 268.83209451 -172.23740872 267.27805373 -172.27171326 263.4539032 C-172.28175888 262.57489349 -172.2918045 261.69588379 -172.30215454 260.79023743 C-172.30798553 259.82345566 -172.31381653 258.85667389 -172.31982422 257.8605957 C-172.329608 256.84421021 -172.33939178 255.82782471 -172.34947205 254.78063965 C-172.37946331 251.40667032 -172.40082054 248.03274069 -172.41967773 244.65869141 C-172.42624956 243.50834726 -172.43282139 242.35800312 -172.43959236 241.17280006 C-172.47220061 235.08518325 -172.49664922 228.99758408 -172.51611328 222.90991211 C-172.53394048 217.86473219 -172.56878222 212.8201097 -172.61865234 207.77514648 C-172.678732 201.69088343 -172.70957237 195.60713813 -172.71928596 189.52259254 C-172.72786189 187.20168857 -172.74673211 184.88079921 -172.77602959 182.56006432 C-172.81481436 179.31326951 -172.81599517 176.06850347 -172.80810547 172.8215332 C-172.82810608 171.86082413 -172.84810669 170.90011505 -172.86871338 169.91029358 C-172.80002646 163.62156948 -172.80002646 163.62156948 -170.89817333 160.93115616 C-167.92151423 158.24117772 -165.25722027 157.02314157 -161.28662109 157.03515625 C-160.38225815 157.02519623 -159.4778952 157.01523621 -158.54612732 157.00497437 C-157.58658646 157.01831818 -156.62704559 157.03166199 -155.63842773 157.04541016 C-154.63775772 157.03740387 -153.63708771 157.02939758 -152.60609436 157.02114868 C-149.41984215 156.9981271 -146.23486998 157.00752784 -143.04858398 157.02197266 C-139.85896797 157.02582223 -136.66991469 157.02237285 -133.48036194 157.00137329 C-131.49930682 156.98929959 -129.51809347 156.99192777 -127.53709412 157.01107788 C-122.58660728 156.99099657 -119.10440517 156.93167953 -115.11108398 153.64697266 C-113.48112554 151.39607767 -113.10634712 149.62381464 -112.54858398 146.89697266 C-114.208955 137.30371792 -127.23004345 128.48632297 -134.09082031 121.76318359 C-135.70223092 120.18196168 -137.30737042 118.59458234 -138.91186523 117.00634766 C-139.40455399 116.52711853 -139.89724274 116.0478894 -140.40486145 115.55413818 C-144.01713076 111.96853165 -145.80752135 109.40089011 -146.67358398 104.39697266 C-145.16381366 94.33183714 -131.30357066 84.69508113 -124.27905273 77.68212891 C-122.83638657 76.23878831 -121.39386882 74.79529937 -119.95149231 73.35166931 C-116.94324097 70.34195041 -113.93320498 67.33403109 -110.921875 64.32739258 C-107.05695295 60.46819815 -103.19657915 56.60448999 -99.33750439 52.7394495 C-96.36685838 49.76519867 -93.39384565 46.79332284 -90.42009926 43.82217216 C-88.9947597 42.3975005 -87.57016484 40.97208337 -86.14632225 39.5459156 C-84.16456822 37.56163306 -82.17965642 35.58056533 -80.19384766 33.6003418 C-79.60423752 33.00870743 -79.01462738 32.41707306 -78.40715027 31.80751038 C-73.31049814 26.73749448 -73.31049814 26.73749448 -68.79858398 26.39697266 C-61.8251018 26.86975111 -57.99393173 31.50016927 -53.34936523 36.24853516 C-52.40156441 37.20413834 -52.40156441 37.20413834 -51.43461609 38.17904663 C-49.42610347 40.20530566 -47.42443756 42.23815252 -45.42358398 44.27197266 C-43.41114063 46.31202978 -41.39725336 48.3506077 -39.38041687 50.38632202 C-38.12781955 51.65118309 -36.877905 52.91870763 -35.63093567 54.18911743 C-31.22794479 58.70616536 -31.22794479 58.70616536 -25.23608398 60.02197266 C-21.73422959 59.99655085 -21.33976743 59.86979242 -18.67358398 57.27197266 C-16.63421446 53.84583185 -15.98735114 52.13421591 -15.98510742 48.18481445 C-15.97939728 46.79778572 -15.97939728 46.79778572 -15.97357178 45.38273621 C-15.97203094 43.87964653 -15.97203094 43.87964653 -15.97045898 42.34619141 C-15.95213127 40.23355041 -15.932561 38.1209199 -15.91186523 36.00830078 C-15.88288409 32.67031197 -15.86108377 29.33299589 -15.8605957 25.99487305 C-15.85726293 22.77803543 -15.82272068 19.56275836 -15.78295898 16.34619141 C-15.79002869 15.35020432 -15.79709839 14.35421722 -15.80438232 13.32804871 C-15.78796692 12.3939064 -15.77155151 11.4597641 -15.75463867 10.49731445 C-15.75099304 9.67949997 -15.74734741 8.86168549 -15.74359131 8.01908875 C-13.56164137 -0.16396045 -7.08213025 -0.07510212 0 0 Z " fill="#010101" transform="translate(221.111083984375,500.35302734375)"/>
<path d="M0 0 C0.78913788 -0.00261841 1.57827576 -0.00523682 2.3913269 -0.00793457 C12.91213446 -0.011654 23.14942948 0.44105823 33.5625 2.0625 C34.56990234 2.21936279 35.57730469 2.37622559 36.61523438 2.5378418 C43.3913509 3.73190898 49.61590344 5.77399545 56 8.3125 C57.21320923 8.78695557 57.21320923 8.78695557 58.45092773 9.27099609 C89.28701028 21.51346689 115.98458967 42.05672937 131 72.3125 C131.62455078 73.50746094 131.62455078 73.50746094 132.26171875 74.7265625 C135.21803563 80.46163969 137.71377559 86.28280127 140 92.3125 C140.37898438 93.23417969 140.75796875 94.15585938 141.1484375 95.10546875 C158.1280356 138.63596706 158.41479363 191.97459311 149 237.3125 C148.74879395 238.53533691 148.49758789 239.75817383 148.23876953 241.01806641 C146.03747188 251.52789478 143.71283792 261.78111107 139.90795898 271.83666992 C139.1587646 273.87957938 138.53444214 275.96781684 137.9453125 278.0625 C132.17852541 297.88880935 119.11572341 319.26460086 105.0078125 334.18359375 C103.27390349 336.02207704 101.69863926 337.90120676 100.125 339.875 C80.28745471 363.16493577 48.04483658 375.6671928 18.43603516 379.01513672 C-17.6308711 382.13645914 -54.66029656 376.05325676 -83.71191406 352.95117188 C-87.90521133 349.51316118 -91.97452934 345.94469277 -96 342.3125 C-96.6909375 341.69503906 -97.381875 341.07757813 -98.09375 340.44140625 C-103.32793603 335.49115012 -107.56389021 329.63517428 -111.84375 323.86572266 C-112.83066954 322.5399663 -113.83542059 321.2275152 -114.84375 319.91796875 C-123.87625002 307.75391802 -130.46049263 293.35372864 -136 279.3125 C-136.41636719 278.30316406 -136.83273437 277.29382813 -137.26171875 276.25390625 C-145.01923025 256.26057219 -148.17137327 234.4618142 -151 213.3125 C-151.17724609 212.08563477 -151.35449219 210.85876953 -151.53710938 209.59472656 C-152.12729382 204.81068929 -152.16198748 200.05746254 -152.16796875 195.2421875 C-152.17129715 194.28466583 -152.17462555 193.32714417 -152.17805481 192.34060669 C-152.18309873 190.31512935 -152.18546392 188.28964377 -152.18530273 186.26416016 C-152.18745896 183.24496703 -152.20555735 180.22615841 -152.22460938 177.20703125 C-152.27840365 158.68835284 -151.25874663 140.38232213 -147 122.3125 C-146.72414063 121.08015625 -146.44828125 119.8478125 -146.1640625 118.578125 C-139.05636757 88.32485938 -126.68581792 61.83238784 -105 39.3125 C-104.14535156 38.36310547 -104.14535156 38.36310547 -103.2734375 37.39453125 C-93.60205593 26.95439884 -80.75116528 19.35575476 -68 13.3125 C-66.89011719 12.78011719 -65.78023437 12.24773438 -64.63671875 11.69921875 C-44.17235031 2.73012409 -22.11111984 0.07026442 0 0 Z " fill="#000000" transform="translate(625,48.6875)"/>
<path d="M0 0 C1.41474474 0.58797921 2.83137181 1.17145331 4.25 1.75 C26.21375616 11.57278898 43.73808055 28.19502155 56.5625 48.375 C57.20674927 49.37333862 57.20674927 49.37333862 57.86401367 50.3918457 C60.25467339 54.25719054 61.59207279 57.376825 62 62 C62.66 62 63.32 62 64 62 C77.23218974 96.44780062 77.17267344 129.66347753 63 164 C61.46156765 167.41531981 59.85757074 170.74711114 58 174 C57.34 174 56.68 174 56 174 C55.61328125 175.07894531 55.61328125 175.07894531 55.21875 176.1796875 C45.65025277 198.32217148 21.37372076 215.02917889 -0.1484375 224.4375 C-6.61689064 227.13186333 -13.24050786 229.17796529 -20 231 C-21.71509766 231.48146484 -21.71509766 231.48146484 -23.46484375 231.97265625 C-52.61157051 239.02163966 -83.84834458 232.46641759 -109.625 218 C-115.51422654 214.46232644 -120.82023786 210.5022767 -126 206 C-127.22976562 204.96939453 -127.22976562 204.96939453 -128.484375 203.91796875 C-139.4648604 194.45497279 -147.55334555 183.29630609 -155 171 C-155.55558594 170.13246094 -156.11117187 169.26492188 -156.68359375 168.37109375 C-161.95395212 159.62366779 -164.44824979 149.80822849 -167 140 C-167.27336182 138.96915283 -167.27336182 138.96915283 -167.55224609 137.91748047 C-175.17291883 108.07932403 -168.55046466 76.45815513 -153.81640625 50.01953125 C-147.86126119 39.75436399 -140.51329815 31.22983914 -132 23 C-131.47567383 22.49098145 -130.95134766 21.98196289 -130.41113281 21.45751953 C-117.78636283 9.4498709 -102.53901819 1.20785813 -86 -4 C-84.75331771 -4.50506009 -83.50726419 -5.01167399 -82.26171875 -5.51953125 C-77.44685592 -7.34180517 -72.58814792 -8.03727596 -67.5 -8.6875 C-66.04968384 -8.87638794 -66.04968384 -8.87638794 -64.57006836 -9.0690918 C-42.77641303 -11.73398367 -19.83561593 -9.84020383 0 0 Z " fill="#020202" transform="translate(312,604)"/>
<path d="M0 0 C1.41474474 0.58797921 2.83137181 1.17145331 4.25 1.75 C26.21375616 11.57278898 43.73808055 28.19502155 56.5625 48.375 C57.20674927 49.37333862 57.20674927 49.37333862 57.86401367 50.3918457 C60.25467339 54.25719054 61.59207279 57.376825 62 62 C62.66 62 63.32 62 64 62 C77.23218974 96.44780062 77.17267344 129.66347753 63 164 C61.46156765 167.41531981 59.85757074 170.74711114 58 174 C57.34 174 56.68 174 56 174 C55.61328125 175.07894531 55.61328125 175.07894531 55.21875 176.1796875 C45.65025277 198.32217148 21.37372076 215.02917889 -0.1484375 224.4375 C-6.61689064 227.13186333 -13.24050786 229.17796529 -20 231 C-21.71509766 231.48146484 -21.71509766 231.48146484 -23.46484375 231.97265625 C-52.61157051 239.02163966 -83.84834458 232.46641759 -109.625 218 C-115.51422654 214.46232644 -120.82023786 210.5022767 -126 206 C-127.22976562 204.96939453 -127.22976562 204.96939453 -128.484375 203.91796875 C-139.4648604 194.45497279 -147.55334555 183.29630609 -155 171 C-155.55558594 170.13246094 -156.11117187 169.26492188 -156.68359375 168.37109375 C-161.95395212 159.62366779 -164.44824979 149.80822849 -167 140 C-167.27336182 138.96915283 -167.27336182 138.96915283 -167.55224609 137.91748047 C-175.17291883 108.07932403 -168.55046466 76.45815513 -153.81640625 50.01953125 C-147.86126119 39.75436399 -140.51329815 31.22983914 -132 23 C-131.47567383 22.49098145 -130.95134766 21.98196289 -130.41113281 21.45751953 C-117.78636283 9.4498709 -102.53901819 1.20785813 -86 -4 C-84.75331771 -4.50506009 -83.50726419 -5.01167399 -82.26171875 -5.51953125 C-77.44685592 -7.34180517 -72.58814792 -8.03727596 -67.5 -8.6875 C-66.04968384 -8.87638794 -66.04968384 -8.87638794 -64.57006836 -9.0690918 C-42.77641303 -11.73398367 -19.83561593 -9.84020383 0 0 Z M-117 41 C-117.48404297 41.46631836 -117.96808594 41.93263672 -118.46679688 42.41308594 C-135.85436943 59.41556461 -145.33091332 82.08625767 -146.07080078 106.31884766 C-146.296518 116.08159143 -146.34598175 125.46568955 -144 135 C-143.76023438 136.34964844 -143.76023438 136.34964844 -143.515625 137.7265625 C-139.12012999 159.76343613 -122.7243158 180.17535165 -104.74121094 192.82275391 C-84.54310393 206.47884925 -65.14128539 210.97893082 -41 210 C-40.20980469 209.9680957 -39.41960937 209.93619141 -38.60546875 209.90332031 C-14.16388821 208.63348687 8.7085513 196.34487142 25.3125 178.6875 C30.81580484 172.63555965 35.06411992 166.18342238 39 159 C39.83144531 157.51886719 39.83144531 157.51886719 40.6796875 156.0078125 C51.412129 135.87781029 53.9332938 108.81010385 48 86.75 C44.0366647 73.32847409 37.91208393 60.81682344 29 50 C28.36320313 49.21238281 27.72640625 48.42476562 27.0703125 47.61328125 C11.56051732 29.26936688 -10.62893361 18.16559954 -34 14 C-65.06303106 12.06607686 -94.27104355 18.74520079 -117 41 Z " fill="#F9F9F9" transform="translate(312,604)"/>
<path d="M0 0 C1.62490954 -0.02698189 3.24994633 -0.04638757 4.875 -0.0625 C6.23238281 -0.07990234 6.23238281 -0.07990234 7.6171875 -0.09765625 C10 0 10 0 12 1 C12.02721176 2.89575251 12.04649136 4.79161979 12.0625 6.6875 C12.07410156 7.74324219 12.08570313 8.79898438 12.09765625 9.88671875 C12.00865425 12.72410262 11.64939838 15.2438919 11 18 C11.66386719 18.03738281 12.32773437 18.07476563 13.01171875 18.11328125 C18.50916824 18.52258041 22.90840753 18.90840753 27 23 C27.07271741 25.35313555 27.08370868 27.70833668 27.0625 30.0625 C27.05347656 31.35285156 27.04445313 32.64320313 27.03515625 33.97265625 C27.02355469 34.97167969 27.01195312 35.97070312 27 37 C22.38695503 36.07302879 17.97092813 35.03603274 13.5625 33.375 C7.76940925 31.37633297 1.92440719 31.06667856 -3.9375 32.9375 C-4.618125 33.288125 -5.29875 33.63875 -6 34 C-7.485 34.495 -7.485 34.495 -9 35 C-9.28638547 40.53678576 -9.31040331 44.30136305 -6 49 C-0.04048256 53.13517537 7.01043228 55.91949208 14 57.8125 C21.73613417 60.87471977 27.81648122 65.8475324 32 73 C34.18377526 79.65256038 34.34841024 87.68241749 31.71875 94.15234375 C26.69249326 102.4799373 20.63315114 107.56810976 11.37109375 110.45703125 C8.27034013 111.1670885 5.1520547 111.58354671 2 112 C1.80083984 113.82337891 1.80083984 113.82337891 1.59765625 115.68359375 C1.41949909 117.26825484 1.24110125 118.8528889 1.0625 120.4375 C0.97548828 121.23994141 0.88847656 122.04238281 0.79882812 122.86914062 C0.11328125 128.88671875 0.11328125 128.88671875 -1 130 C-2.83115883 130.09851171 -4.66619933 130.12972629 -6.5 130.125 C-7.5003125 130.12757813 -8.500625 130.13015625 -9.53125 130.1328125 C-12 130 -12 130 -13 129 C-12.90903444 126.13311752 -12.76232012 123.29699485 -12.5625 120.4375 C-12.51029297 119.63119141 -12.45808594 118.82488281 -12.40429688 117.99414062 C-12.27422624 115.99578262 -12.13770944 113.99784614 -12 112 C-12.92872925 111.81606689 -12.92872925 111.81606689 -13.8762207 111.62841797 C-27.46522005 108.88785596 -27.46522005 108.88785596 -31 104 C-31.29296875 100.86328125 -31.29296875 100.86328125 -31.1875 97.3125 C-31.16042969 96.13300781 -31.13335937 94.95351563 -31.10546875 93.73828125 C-31.07066406 92.83464844 -31.03585938 91.93101562 -31 91 C-28.09754002 90.15174585 -26.55209132 89.76744099 -23.71875 90.9609375 C-22.9865625 91.42757812 -22.254375 91.89421875 -21.5 92.375 C-14.0579827 97.06556724 -5.54307428 96.67275558 3 96 C6.65794958 94.88116598 8.98678102 93.18208881 11.5 90.25 C12.2743851 86.76526706 12.30179806 83.34934977 11 80 C6.0615501 74.81514096 -1.27281782 72.93670132 -7.80859375 70.44335938 C-15.12809374 67.57033115 -22.17677492 64.79695515 -25.875 57.375 C-26.26429688 56.61960937 -26.65359375 55.86421875 -27.0546875 55.0859375 C-30.05791164 48.45898837 -30.49566469 39.38638883 -28.12890625 32.4453125 C-24.17699198 25.78536517 -18.32823367 20.95664009 -11 18.5234375 C-8.00699083 17.74011088 -5.07666199 17.32048562 -2 17 C-2.02320313 16.35933594 -2.04640625 15.71867188 -2.0703125 15.05859375 C-2.18440863 9.59012904 -1.79791904 5.16901723 0 0 Z " fill="#F7F7F7" transform="translate(263,651)"/>
<path d="M0 0 C0 3 0 3 -2 7 C153.76 7.33 309.52 7.66 470 8 C470 8.33 470 8.66 470 9 C312.26 9 154.52 9 -8 9 C-2 2 -2 2 0 0 Z " fill="#242424" transform="translate(410,922)"/>
<path d="M0 0 C0 4.09939665 -1.52298101 5.78656995 -4 9 C-5.65948148 10.01187895 -7.32580562 11.0126546 -9 12 C-9.474375 12.804375 -9.94875 13.60875 -10.4375 14.4375 C-12.41189879 17.67551401 -14.78341947 19.07005168 -18 21 C-18.66 20.67 -19.32 20.34 -20 20 C-13.4 13.4 -6.8 6.8 0 0 Z " fill="#252525" transform="translate(450,882)"/>
<path d="M0 0 C0.66 0.33 1.32 0.66 2 1 C1.21625 1.598125 0.4325 2.19625 -0.375 2.8125 C-3.40314409 5.33595341 -4.75456513 7.26369538 -6 11 C-8.58072903 13.32265612 -9.45176068 14 -13 14 C-15.68767578 16.43750025 -15.68767578 16.43750025 -18 19 C-18.66 18.67 -19.32 18.34 -20 18 C-13.68253838 11.46998827 -7.38730213 5.34439389 0 0 Z " fill="#232323" transform="translate(536,74)"/>
<path d="M0 0 C0 2.83967231 -0.40267181 5.23735711 -1 8 C-1.928125 8.268125 -2.85625 8.53625 -3.8125 8.8125 C-6.76240366 9.91148371 -8.05615186 10.62418561 -10 13 C-10.66 12.67 -11.32 12.34 -12 12 C-8.04 8.04 -4.08 4.08 0 0 Z " fill="#212121" transform="translate(425,907)"/>
<path d="M0 0 C0 3.61029169 -0.96092582 6.55806676 -2 10 C-2.66 9.67 -3.32 9.34 -4 9 C-5.67419438 9.9873454 -7.34051852 10.98812105 -9 12 C-9.99 12 -10.98 12 -12 12 C-8.04 8.04 -4.08 4.08 0 0 Z " fill="#E4E4E4" transform="translate(185,877)"/>
<path d="M0 0 C0.66 0.99 1.32 1.98 2 3 C1.52949219 3.59167969 1.05898437 4.18335938 0.57421875 4.79296875 C-4.0558124 10.66012063 -4.0558124 10.66012063 -8 17 C-8.33 16.34 -8.66 15.68 -9 15 C-7.63671875 12.28515625 -7.63671875 12.28515625 -5.6875 9.0625 C-5.05199219 8.00160156 -4.41648438 6.94070313 -3.76171875 5.84765625 C-2.54234503 3.87665083 -1.2856288 1.92844321 0 0 Z " fill="#CBCBCB" transform="translate(164,645)"/>
<path d="M0 0 C0.66 1.32 1.32 2.64 2 4 C1.071875 4.12375 1.071875 4.12375 0.125 4.25 C-0.57625 4.4975 -1.2775 4.745 -2 5 C-2.309375 5.66 -2.61875 6.32 -2.9375 7 C-3.288125 7.66 -3.63875 8.32 -4 9 C-6.625 9.75 -6.625 9.75 -9 10 C-8.06409496 8.8944811 -7.12620142 7.79064547 -6.1875 6.6875 C-5.66542969 6.07261719 -5.14335937 5.45773437 -4.60546875 4.82421875 C-3.12827531 3.14575321 -1.59960869 1.56117966 0 0 Z " fill="#2E2E2E" transform="translate(137,538)"/>
<path d="M0 0 C0 0.33 0 0.66 0 1 C-1.093125 1.0825 -2.18625 1.165 -3.3125 1.25 C-7.03276664 1.63689209 -7.03276664 1.63689209 -8.9375 4.0625 C-9.288125 4.701875 -9.63875 5.34125 -10 6 C-9.01 6.33 -8.02 6.66 -7 7 C-7.99 7 -8.98 7 -10 7 C-10.33 7.66 -10.66 8.32 -11 9 C-12.32 8.34 -13.64 7.68 -15 7 C-10.26483794 1.19942648 -7.57578316 -0.93035934 0 0 Z " fill="#2C2C2C" transform="translate(378,527)"/>
<path d="M0 0 C0.99 0.66 1.98 1.32 3 2 C3 2.66 3 3.32 3 4 C2.38125 4.268125 1.7625 4.53625 1.125 4.8125 C-1.2995233 5.95556848 -1.2995233 5.95556848 -3 9 C-3.99 7.68 -4.98 6.36 -6 5 C-4.02 3.35 -2.04 1.7 0 0 Z " fill="#E7E7E7" transform="translate(402,882)"/>
<path d="M0 0 C0.66 0.33 1.32 0.66 2 1 C1 4 1 4 -1.25 5.75 C-4.41076857 7.18671298 -5.74770785 7.02214896 -9 6 C-6.12050853 3.76039553 -3.23257974 1.70135776 0 0 Z " fill="#E0E0E0" transform="translate(316,799)"/>
<path d="M0 0 C0.33 0.66 0.66 1.32 1 2 C-0.97764782 6.06516496 -3.7373124 8.91367389 -7 12 C-7.66 11.34 -8.32 10.68 -9 10 C-8.27683594 9.29423828 -8.27683594 9.29423828 -7.5390625 8.57421875 C-6.90742188 7.95160156 -6.27578125 7.32898438 -5.625 6.6875 C-4.68527344 5.76517578 -4.68527344 5.76517578 -3.7265625 4.82421875 C-1.81913393 2.91187472 -1.81913393 2.91187472 0 0 Z " fill="#2A2A2A" transform="translate(506,788)"/>
<path d="M0 0 C0 0.33 0 0.66 0 1 C-1.0828125 1.12375 -1.0828125 1.12375 -2.1875 1.25 C-6.40560818 2.37482885 -8.96614827 4.96614827 -12 8 C-12.66 7.34 -13.32 6.68 -14 6 C-9.49605818 1.40022963 -6.77374007 -0.82943756 0 0 Z " fill="#363636" transform="translate(156,527)"/>
<path d="M0 0 C4.82029598 3.85623679 4.82029598 3.85623679 5.33203125 7.11328125 C5.3145776 9.07856214 5.16596091 11.04166127 5 13 C4.67 13 4.34 13 4 13 C3.67 10.69 3.34 8.38 3 6 C2.01 7.485 2.01 7.485 1 9 C0.27129528 6.68529088 -0.39239518 4.3494053 -1 2 C-0.67 1.34 -0.34 0.68 0 0 Z " fill="#363636" transform="translate(448,596)"/>
<path d="M0 0 C0.33 0.66 0.66 1.32 1 2 C0.67 2.66 0.34 3.32 0 4 C0.66 4.33 1.32 4.66 2 5 C-3.75 9 -3.75 9 -6 9 C-4.47291037 5.56404834 -2.40072955 2.88087546 0 0 Z " fill="#282828" transform="translate(511,98)"/>
<path d="M0 0 C0 0.66 0 1.32 0 2 C-0.66 2 -1.32 2 -2 2 C-2 3.32 -2 4.64 -2 6 C-3.32 6.33 -4.64 6.66 -6 7 C-6.33 5.35 -6.66 3.7 -7 2 C-4.35261084 0.5393715 -3.10551666 0 0 0 Z " fill="#171717" transform="translate(230,624)"/>
<path d="M0 0 C0.99 0.33 1.98 0.66 3 1 C2.01 1.495 2.01 1.495 1 2 C0.731875 2.61875 0.46375 3.2375 0.1875 3.875 C-1.38063622 6.6811385 -3.13037505 7.63692815 -6 9 C-6.66 8.67 -7.32 8.34 -8 8 C-7.01 7.67 -6.02 7.34 -5 7 C-4.67 6.01 -4.34 5.02 -4 4 C-2.70644173 2.62804426 -1.37701298 1.28817344 0 0 Z " fill="#D7D7D7" transform="translate(393,890)"/>
<path d="M0 0 C0.66 0.33 1.32 0.66 2 1 C1.01 2.65 0.02 4.3 -1 6 C-1.61875 5.814375 -2.2375 5.62875 -2.875 5.4375 C-5.04160178 4.76313824 -5.04160178 4.76313824 -7 6 C-7.66 5.34 -8.32 4.68 -9 4 C-7.54618103 3.30300448 -6.08677047 2.61766134 -4.625 1.9375 C-3.40683594 1.36322266 -3.40683594 1.36322266 -2.1640625 0.77734375 C-1.44992187 0.52082031 -0.73578125 0.26429688 0 0 Z " fill="#262626" transform="translate(319,824)"/>
<path d="M0 0 C1 3 1 3 0.0625 5.1875 C-0.4634375 6.0846875 -0.4634375 6.0846875 -1 7 C-1.33 6.67 -1.66 6.34 -2 6 C-2.99 6.99 -3.98 7.98 -5 9 C-5.66 8.34 -6.32 7.68 -7 7 C-4.69 4.69 -2.38 2.38 0 0 Z " fill="#303030" transform="translate(93,582)"/>
<path d="M0 0 C0 3.60573896 -0.81707462 4.41336566 -3 7.1875 C-3.556875 7.90292969 -4.11375 8.61835937 -4.6875 9.35546875 C-5.120625 9.89816406 -5.55375 10.44085937 -6 11 C-6.66 10.01 -7.32 9.02 -8 8 C-5.36 5.36 -2.72 2.72 0 0 Z " fill="#1C1C1C" transform="translate(349,548)"/>
<path d="M0 0 C1.4540625 0.0309375 1.4540625 0.0309375 2.9375 0.0625 C3.2675 0.7225 3.5975 1.3825 3.9375 2.0625 C1.6275 3.3825 -0.6825 4.7025 -3.0625 6.0625 C-3.44468767 4.40635343 -3.77645102 2.73792976 -4.0625 1.0625 C-3.0625 0.0625 -3.0625 0.0625 0 0 Z " fill="#E7E7E7" transform="translate(412.0625,480.9375)"/>
<path d="M0 0 C0.99 0.66 1.98 1.32 3 2 C-0.19990508 4.74277578 -3.00499382 6.6302836 -7 8 C-6.02133662 6.85373678 -5.04205413 5.70800212 -4.0625 4.5625 C-3.51722656 3.92441406 -2.97195313 3.28632812 -2.41015625 2.62890625 C-1.63204305 1.73008851 -0.84063472 0.84063472 0 0 Z " fill="#202020" transform="translate(461,871)"/>
<path d="M0 0 C0.625 1.8125 0.625 1.8125 1 4 C-1.40436026 7.60654039 -2.94679607 7.85452932 -7 9 C-6.02180976 7.68677212 -5.0424189 6.37443848 -4.0625 5.0625 C-3.51722656 4.33160156 -2.97195312 3.60070312 -2.41015625 2.84765625 C-1 1 -1 1 0 0 Z " fill="#D2D2D2" transform="translate(175,632)"/>
<path d="M0 0 C0 4.05164344 -1.61357669 5.79537442 -4 9 C-5.485 9.99 -5.485 9.99 -7 11 C-5.72278474 6.00724943 -3.82669043 3.42388092 0 0 Z " fill="#1C1C1C" transform="translate(450,882)"/>
<path d="M0 0 C1.67542976 0.28604898 3.34385343 0.61781233 5 1 C4.01 1.66 3.02 2.32 2 3 C1.34 2.67 0.68 2.34 0 2 C0 5.96 0 9.92 0 14 C-0.33 14 -0.66 14 -1 14 C-1.02685938 11.85423363 -1.04633088 9.70837355 -1.0625 7.5625 C-1.07410156 6.36753906 -1.08570313 5.17257812 -1.09765625 3.94140625 C-1 1 -1 1 0 0 Z " fill="#AEAEAE" transform="translate(233,741)"/>
<path d="M0 0 C2 3 2 3 2 6 C1.360625 6.28875 0.72125 6.5775 0.0625 6.875 C-2.15206079 7.82823451 -2.15206079 7.82823451 -3 10 C-3.66 9.67 -4.32 9.34 -5 9 C-3.35 6.03 -1.7 3.06 0 0 Z " fill="#D1D1D1" transform="translate(925,897)"/>
<path d="M0 0 C0.66 0.33 1.32 0.66 2 1 C0.47793991 3.62901288 -0.84365964 5.84365964 -3 8 C-3.99 7.67 -4.98 7.34 -6 7 C-4.02 4.69 -2.04 2.38 0 0 Z " fill="#DFDFDF" transform="translate(409,874)"/>
<path d="M0 0 C-1.5625 2.0625 -1.5625 2.0625 -4 4 C-7.75 3.75 -7.75 3.75 -11 3 C-3.71428571 -1.85714286 -3.71428571 -1.85714286 0 0 Z " fill="#C7C7C7" transform="translate(302,808)"/>
<path d="M0 0 C2.9719385 1.12451727 5.33440687 2.22293791 8 4 C8.1875 6.625 8.1875 6.625 8 9 C5.06799526 6.14723863 2.35684596 3.34920216 0 0 Z " fill="#292929" transform="translate(185,775)"/>
<path d="M0 0 C2.17854707 3.2678206 3.49760034 6.38058265 5 10 C3.33333333 10 1.66666667 10 0 10 C0.33 8.02 0.66 6.04 1 4 C0.34 3.67 -0.32 3.34 -1 3 C-0.67 2.01 -0.34 1.02 0 0 Z " fill="#292929" transform="translate(234,701)"/>
<path d="M0 0 C4.455 0.99 4.455 0.99 9 2 C8.01 2.99 7.02 3.98 6 5 C3.69 4.34 1.38 3.68 -1 3 C-0.67 2.01 -0.34 1.02 0 0 Z " fill="#1A1A1A" transform="translate(783,458)"/>
<path d="M0 0 C0.66 0.33 1.32 0.66 2 1 C0.02 3.31 -1.96 5.62 -4 8 C-4.66 7.67 -5.32 7.34 -6 7 C-5 5 -4 3 -3 1 C-2.01 0.67 -1.02 0.34 0 0 Z " fill="#1B1B1B" transform="translate(726,384)"/>
<path d="M0 0 C0.66 0.33 1.32 0.66 2 1 C0.60667426 4.36720387 -0.9789286 5.9859524 -4 8 C-3.67 6.35 -3.34 4.7 -3 3 C-2.34 3 -1.68 3 -1 3 C-0.67 2.01 -0.34 1.02 0 0 Z " fill="#2B2B2B" transform="translate(434,846)"/>
<path d="M0 0 C0.66 0.66 1.32 1.32 2 2 C1.01 3.32 0.02 4.64 -1 6 C-3.475 5.01 -3.475 5.01 -6 4 C-4 2.66666667 -2 1.33333333 0 0 Z " fill="#1B1B1B" transform="translate(448,832)"/>
<path d="M0 0 C0.66 0.33 1.32 0.66 2 1 C1.67 2.32 1.34 3.64 1 5 C-1.875 5.625 -1.875 5.625 -5 6 C-5.66 5.34 -6.32 4.68 -7 4 C-1.7265625 0.77734375 -1.7265625 0.77734375 0 0 Z " fill="#2E2E2E" transform="translate(494,800)"/>
<path d="M0 0 C0.33 0.99 0.66 1.98 1 3 C-1.33333333 7.66666667 -1.33333333 7.66666667 -4 9 C-4.66 8.34 -5.32 7.68 -6 7 C-4.02 4.69 -2.04 2.38 0 0 Z " fill="#252525" transform="translate(360,790)"/>
<path d="M0 0 C0.6875 1.8125 0.6875 1.8125 1 4 C-0.4375 5.75 -0.4375 5.75 -2 7 C-2.99 5.02 -3.98 3.04 -5 1 C-3 0 -3 0 0 0 Z " fill="#151515" transform="translate(182,761)"/>
<path d="M0 0 C0.66 0.33 1.32 0.66 2 1 C0.41641358 4.16717283 -0.45263699 5.73268318 -3.6875 7.3125 C-4.450625 7.539375 -5.21375 7.76625 -6 8 C-4.55746343 4.63408134 -2.66735273 2.48952921 0 0 Z " fill="#DDDDDD" transform="translate(417,866)"/>
<path d="M0 0 C0.99 0.33 1.98 0.66 3 1 C1.35 2.65 -0.3 4.3 -2 6 C-3.32 5.34 -4.64 4.68 -6 4 C-4.68 4 -3.36 4 -2 4 C-1.34 2.68 -0.68 1.36 0 0 Z " fill="#F2F2F2" transform="translate(499,792)"/>
<path d="M0 0 C3.35595828 0.59927826 5.37801226 1.84622436 8 4 C5.50935112 4.68707555 3.62113708 5 1 5 C0.67 3.35 0.34 1.7 0 0 Z " fill="#E9E9E9" transform="translate(49,771)"/>
<path d="M0 0 C0.99 0.33 1.98 0.66 3 1 C3.33 1 3.66 1 4 1 C4.66 1.33 5.32 1.66 6 2 C6 3.32 6 4.64 6 6 C2.34683329 4.75023244 1.21934164 4.32901247 -1 1 C-0.67 0.67 -0.34 0.34 0 0 Z " fill="#C8C8C8" transform="translate(317,631)"/>
<path d="M0 0 C0.33 1.32 0.66 2.64 1 4 C-0.8125 5.5625 -0.8125 5.5625 -3 7 C-3.99 6.67 -4.98 6.34 -6 6 C-4.02 4.02 -2.04 2.04 0 0 Z " fill="#D1D1D1" transform="translate(915,912)"/>
<path d="M0 0 C1.32 0.66 2.64 1.32 4 2 C1.03 4.475 1.03 4.475 -2 7 C-2.33 6.01 -2.66 5.02 -3 4 C-2.505 3.525625 -2.01 3.05125 -1.5 2.5625 C0.11542197 1.24076302 0.11542197 1.24076302 0 0 Z " fill="#EAEAEA" transform="translate(449,878)"/>
<path d="M0 0 C0.66 0.33 1.32 0.66 2 1 C1.34 2.32 0.68 3.64 0 5 C-0.66 5 -1.32 5 -2 5 C-2.33 5.66 -2.66 6.32 -3 7 C-3.99 7 -4.98 7 -6 7 C-4.02 4.69 -2.04 2.38 0 0 Z " fill="#DADADA" transform="translate(425,858)"/>
<path d="M0 0 C0.66 0.33 1.32 0.66 2 1 C1.34 2.32 0.68 3.64 0 5 C-0.66 5 -1.32 5 -2 5 C-2.33 5.66 -2.66 6.32 -3 7 C-3.99 7 -4.98 7 -6 7 C-4.02 4.69 -2.04 2.38 0 0 Z " fill="#DBDBDB" transform="translate(441,842)"/>
<path d="M0 0 C2 1.5625 2 1.5625 4 4 C4.25 7.75 4.25 7.75 4 11 C3.67 11 3.34 11 3 11 C2.87625 10.195625 2.7525 9.39125 2.625 8.5625 C2.315625 7.2940625 2.315625 7.2940625 2 6 C1.34 5.67 0.68 5.34 0 5 C0 3.35 0 1.7 0 0 Z " fill="#2D2D2D" transform="translate(449,819)"/>
<path d="M0 0 C0.66 0.99 1.32 1.98 2 3 C1.34 4.32 0.68 5.64 0 7 C0 6.34 0 5.68 0 5 C-0.66 5 -1.32 5 -2 5 C-2.33 5.99 -2.66 6.98 -3 8 C-3.33 7.34 -3.66 6.68 -4 6 C-2.68 4.02 -1.36 2.04 0 0 Z " fill="#252525" transform="translate(365,783)"/>
<path d="M0 0 C1.98 0.495 1.98 0.495 4 1 C3.34 3.64 2.68 6.28 2 9 C1.67 9 1.34 9 1 9 C1 7.02 1 5.04 1 3 C0.34 2.67 -0.32 2.34 -1 2 C-0.67 1.34 -0.34 0.68 0 0 Z " fill="#383838" transform="translate(274,649)"/>
<path d="M0 0 C1 2 1 2 0.44140625 3.9453125 C0.15136719 4.66460938 -0.13867188 5.38390625 -0.4375 6.125 C-0.86869141 7.21167969 -0.86869141 7.21167969 -1.30859375 8.3203125 C-1.53675781 8.87460937 -1.76492188 9.42890625 -2 10 C-2.66 9.34 -3.32 8.68 -4 8 C-4 7.01 -4 6.02 -4 5 C-3.01 5 -2.02 5 -1 5 C-1.33 4.01 -1.66 3.02 -2 2 C-1.34 1.34 -0.68 0.68 0 0 Z " fill="#C8C8C8" transform="translate(663,630)"/>
<path d="M0 0 C0 4.38968456 -2.12805101 5.76905739 -5 9 C-5.33 8.34 -5.66 7.68 -6 7 C-6.66 6.67 -7.32 6.34 -8 6 C-7.05125 5.38125 -6.1025 4.7625 -5.125 4.125 C-2.05554891 2.18029031 -2.05554891 2.18029031 0 0 Z " fill="#D6D6D6" transform="translate(164,898)"/>
<path d="M0 0 C0.66 0.99 1.32 1.98 2 3 C0.35 4.32 -1.3 5.64 -3 7 C-3 5.68 -3 4.36 -3 3 C-2.01 2.67 -1.02 2.34 0 2 C0 1.34 0 0.68 0 0 Z " fill="#181818" transform="translate(180,878)"/>
<path d="M0 0 C0.28875 0.598125 0.5775 1.19625 0.875 1.8125 C2.04742026 4.19327792 2.04742026 4.19327792 4 7 C3.625 9.1875 3.625 9.1875 3 11 C0.29417212 7.16674383 -0.32613618 4.67461851 0 0 Z " fill="#DDDDDD" transform="translate(419,781)"/>
<path d="M0 0 C-2 2 -2 2 -4 3 C-4 2.34 -4 1.68 -4 1 C-6.64 1.33 -9.28 1.66 -12 2 C-7.72170329 -0.29194467 -4.74957752 -1.52664992 0 0 Z " fill="#303030" transform="translate(248,620)"/>
<path d="M0 0 C0.88492145 2.47778006 1.11637742 3.66056586 0.25 6.1875 C-1 8 -1 8 -4 9 C-2.80100302 5.9168649 -1.52299523 2.93720508 0 0 Z " fill="#CECECE" transform="translate(676,487)"/>
<path d="M0 0 C0.33 0.99 0.66 1.98 1 3 C0.01 3.33 -0.98 3.66 -2 4 C-2.33 4.66 -2.66 5.32 -3 6 C-3.99 6 -4.98 6 -6 6 C-4 4 -2 2 0 0 Z " fill="#E0E0E0" transform="translate(433,851)"/>
<path d="M0 0 C1.32 1.32 2.64 2.64 4 4 C1 5 1 5 -2 4 C-1.34 2.68 -0.68 1.36 0 0 Z " fill="#222222" transform="translate(164,786)"/>
<path d="M0 0 C2.97 0.495 2.97 0.495 6 1 C3.94766315 3.2477975 2.99332739 4.0022242 0 5 C0 3.35 0 1.7 0 0 Z " fill="#151515" transform="translate(192,612)"/>
<path d="M0 0 C2.475 0.99 2.475 0.99 5 2 C4.01 2.99 3.02 3.98 2 5 C1.01 4.01 0.02 3.02 -1 2 C-0.67 1.34 -0.34 0.68 0 0 Z " fill="#EBEBEB" transform="translate(326,612)"/>
<path d="M0 0 C2.475 0.99 2.475 0.99 5 2 C4.01 2.495 4.01 2.495 3 3 C3 3.66 3 4.32 3 5 C1.68 4.34 0.36 3.68 -1 3 C-0.67 2.01 -0.34 1.02 0 0 Z " fill="#E4E4E4" transform="translate(813,466)"/>
</svg>
